<svg xmlns="http://www.w3.org/2000/svg" width="375" viewBox="0 0 375 375" height="375" version="1.0"><defs><clipPath id="a"><path d="M 10.414062 105.195312 L 364.800781 105.195312 L 364.800781 223.6875 L 10.414062 223.6875 Z M 10.414062 105.195312"/></clipPath></defs><path fill="#A5CAF4" d="M 187.5 0 C 83.945312 0 0 83.945312 0 187.5 C 0 291.054688 83.945312 375 187.5 375 C 291.054688 375 375 291.054688 375 187.5 C 375 83.945312 291.054688 0 187.5 0 Z M 187.5 0"/><g clip-path="url(#a)"><path fill="#FFF" d="M 10.414062 221.320312 L 164.464844 105.195312 L 243.855469 161.734375 L 270.882812 153.945312 L 364.800781 223.6875 L 255.34375 223.6875 L 272.234375 201.34375 L 241.152344 213.195312 L 269.871094 191.863281 L 250.949219 190.847656 L 268.179688 167.488281 L 161.425781 223.6875 L 138.113281 223.6875 L 157.707031 199.988281 L 103.992188 209.132812 L 142.167969 178.324219 L 133.382812 164.441406 L 159.398438 130.246094 L 10.414062 221.320312"/></g></svg>